<svg width="30" height="27" viewBox="0 0 30 27" fill="none" xmlns="http://www.w3.org/2000/svg">
<path d="M16.0562 20.0647C18.8753 20.0647 20.9268 18.4898 20.9268 16.2927C20.9268 14.4398 19.9077 13.447 17.3798 12.8383L15.5003 12.375C14.0179 12.0044 13.3827 11.4883 13.3827 10.6015C13.3827 9.48972 14.415 8.72208 15.9504 8.72208C17.34 8.72208 18.1871 9.31767 18.6504 10.5883C18.8621 11.0515 19.2195 11.2633 19.59 11.2633C20.2783 11.2633 20.6754 10.6544 20.4371 9.86032C20.0665 8.45737 18.4783 6.97501 15.9504 6.97501C13.2636 6.97501 11.3444 8.52355 11.3444 10.6809C11.3444 12.4941 12.5092 13.6059 14.9312 14.1751L16.8239 14.625C18.3062 14.9691 18.8621 15.4721 18.8621 16.4383C18.8621 17.5765 17.7635 18.3177 16.0562 18.3177C14.5077 18.3177 13.568 17.7353 13.0915 16.4779C12.8929 16.028 12.5356 15.8162 12.165 15.8162C11.4901 15.8162 11.1327 16.3589 11.2783 17.153C11.5959 18.7809 13.5018 20.0647 16.0562 20.0647ZM15.2753 21.3619C15.2753 21.7986 15.6327 22.1692 16.0694 22.1692C16.5063 22.1692 16.8768 21.7986 16.8768 21.3619V5.65149C16.8768 5.21472 16.5063 4.84412 16.0694 4.84412C15.6327 4.84412 15.2753 5.21472 15.2753 5.65149V21.3619ZM16.0694 27C23.4416 27 29.5695 20.8721 29.5695 13.5C29.5695 6.11472 23.4416 0 16.0694 0C8.68415 0 2.56944 6.10148 2.56944 13.4868H4.81945C4.81945 7.23972 9.82239 2.26324 16.0694 2.26324C22.3165 2.26324 27.3195 7.25296 27.3195 13.5C27.3195 19.7471 22.3165 24.7765 16.0694 24.7501C12.2974 24.7368 8.98857 22.9104 6.96356 20.0913C6.55327 19.5486 5.93121 19.3765 5.37532 19.7074C4.84591 20.0383 4.70033 20.7662 5.15032 21.3485C7.66504 24.7236 11.6091 27 16.0694 27ZM0.941493 10.9456C-0.0114495 10.9456 -0.249685 11.5941 0.266492 12.3353L3.23121 16.5441C3.66796 17.153 4.30326 17.1398 4.72679 16.5441L7.6915 12.3221C8.19445 11.5941 7.95621 10.9456 7.01651 10.9456H0.941493Z" fill="#237BFF"/>
</svg>
