<svg width="50" height="50" viewBox="0 0 50 50" fill="none" xmlns="http://www.w3.org/2000/svg">
<path d="M9.19443 34.1838C14.2345 34.1838 18.3889 30.0295 18.3889 24.9894C18.3889 19.9705 14.2345 15.8161 9.19443 15.8161C4.11219 15.8161 0 19.9705 0 24.9894C0 30.0295 4.11219 34.1838 9.19443 34.1838ZM9.19443 30.8729C5.88358 30.8729 3.28974 28.3003 3.28974 24.9894C3.28974 21.6997 5.88358 19.0425 9.19443 19.0425C12.4842 19.0425 15.078 21.6997 15.078 24.9894C15.078 28.3003 12.4842 30.8729 9.19443 30.8729ZM24.5044 18.3677C29.5445 18.3677 33.6989 14.2134 33.6989 9.17334C33.6989 4.13328 29.5445 0 24.5044 0C19.4433 0 15.31 4.13328 15.31 9.17334C15.31 14.2134 19.4433 18.3677 24.5044 18.3677ZM24.5044 15.0358C21.1935 15.0358 18.5996 12.4631 18.5996 9.17334C18.5996 5.88358 21.1935 3.22648 24.5044 3.22648C27.8152 3.22648 30.3879 5.88358 30.3879 9.17334C30.3879 12.4631 27.8152 15.0358 24.5044 15.0358ZM39.8565 34.1838C44.8755 34.1838 49.0299 30.0295 49.0299 24.9894C49.0299 19.9705 44.8755 15.8161 39.8565 15.8161C34.7743 15.8161 30.641 19.9705 30.641 24.9894C30.641 30.0295 34.7743 34.1838 39.8565 34.1838ZM39.8565 30.8729C36.5247 30.8729 33.9519 28.3003 33.9519 24.9894C33.9519 21.6997 36.5247 19.0425 39.8565 19.0425C43.1463 19.0425 45.7189 21.6997 45.7189 24.9894C45.7189 28.3003 43.1463 30.8729 39.8565 30.8729ZM24.5044 50C29.5445 50 33.6989 45.8456 33.6989 40.8055C33.6989 35.7865 29.5445 31.6321 24.5044 31.6321C19.4433 31.6321 15.31 35.7865 15.31 40.8055C15.31 45.8456 19.4433 50 24.5044 50ZM24.5044 46.6891C21.1935 46.6891 18.5996 44.1163 18.5996 40.8055C18.5996 37.5369 21.1935 34.8587 24.5044 34.8587C27.8152 34.8587 30.3879 37.5369 30.3879 40.8055C30.3879 44.1163 27.8152 46.6891 24.5044 46.6891Z" fill="#9911AF"/>
</svg>
