<svg width="33" height="27" viewBox="0 0 33 27" fill="none" xmlns="http://www.w3.org/2000/svg">
<path d="M7.75 7.75H13.5" stroke="#252525" stroke-width="3" stroke-linecap="round" stroke-linejoin="round"/>
<path d="M30.75 11.3438C30.75 11.2331 30.75 10.5776 30.7471 10.5316C30.6954 9.81138 30.0787 9.23781 29.3024 9.19037C29.2536 9.1875 29.1946 9.1875 29.0739 9.1875H25.3335C22.7661 9.1875 20.6875 11.1181 20.6875 13.5C20.6875 15.8819 22.7676 17.8125 25.3306 17.8125H29.0724C29.1932 17.8125 29.2521 17.8125 29.3024 17.8096C30.0787 17.7622 30.6968 17.1886 30.7471 16.4684C30.75 16.4224 30.75 15.7669 30.75 15.6562" stroke="#252525" stroke-width="3" stroke-linecap="round"/>
<path d="M25 14.9375C25.7939 14.9375 26.4375 14.2939 26.4375 13.5C26.4375 12.7061 25.7939 12.0625 25 12.0625C24.2061 12.0625 23.5625 12.7061 23.5625 13.5C23.5625 14.2939 24.2061 14.9375 25 14.9375Z" fill="black"/>
<path d="M17.8125 2C23.2333 2 25.9444 2 27.6277 3.68475C28.7907 4.84625 29.1515 6.4965 29.2622 9.1875M13.5 25H17.8125C23.2333 25 25.9444 25 27.6277 23.3152C28.7907 22.1537 29.1515 20.5035 29.2622 17.8125M12.0625 2C7.58612 2.01437 5.21281 2.15525 3.68475 3.68475C2 5.36806 2 8.07919 2 13.5C2 18.9208 2 21.6319 3.68475 23.3152C4.62344 24.2554 5.88125 24.6708 7.75 24.8534" stroke="#252525" stroke-width="3" stroke-linecap="round"/>
</svg>
