<svg width="25" height="25" viewBox="0 0 25 25" fill="none" xmlns="http://www.w3.org/2000/svg">
<path d="M0 12.5C0 13.2425 0.621214 13.8485 1.34849 13.8485H11.1515V23.6516C11.1515 24.3789 11.7576 25 12.5 25C13.2425 25 13.8637 24.3789 13.8637 23.6516V13.8485H23.6516C24.3789 13.8485 25 13.2425 25 12.5C25 11.7576 24.3789 11.1364 23.6516 11.1364H13.8637V1.34849C13.8637 0.621214 13.2425 0 12.5 0C11.7576 0 11.1515 0.621214 11.1515 1.34849V11.1364H1.34849C0.621214 11.1364 0 11.7576 0 12.5Z" fill="#252525"/>
</svg>
