<svg width="19" height="19" viewBox="0 0 19 19" fill="none" xmlns="http://www.w3.org/2000/svg">
<path d="M0.25 9.6193C0.25 10.1758 0.715626 10.63 1.26075 10.63H8.60855V17.9779C8.60855 18.523 9.06282 18.9886 9.6193 18.9886C10.1758 18.9886 10.6414 18.523 10.6414 17.9779V10.63H17.9779C18.523 10.63 18.9886 10.1758 18.9886 9.6193C18.9886 9.06282 18.523 8.59719 17.9779 8.59719H10.6414V1.26075C10.6414 0.715626 10.1758 0.25 9.6193 0.25C9.06282 0.25 8.60855 0.715626 8.60855 1.26075V8.59719H1.26075C0.715626 8.59719 0.25 9.06282 0.25 9.6193Z" fill="#252525"/>
</svg>
