<svg width="39" height="35" viewBox="0 0 39 35" fill="none" xmlns="http://www.w3.org/2000/svg">
<path d="M0 33.5046C0 34.4132 0.578345 35 1.44586 35H37.3937C38.1888 35 38.8576 34.3374 38.8576 33.4857C38.8576 32.6528 38.1888 31.9713 37.3937 31.9713H3.41585C3.03631 31.9713 2.9098 31.8389 2.9098 31.4414V1.51432C2.9098 0.700379 2.25916 0 1.46394 0C0.650639 0 0 0.700379 0 1.51432V33.5046ZM1.8977 21.7307L13.5188 14.689L21.8867 22.2039L36.761 12.9286L35.6225 10.9978L22.0314 19.4781L13.6996 12.0011L1.8977 19.1374V21.7307ZM13.2839 17.2444C15.0551 17.2444 16.5009 15.7301 16.5009 13.8751C16.5009 12.02 15.0551 10.5246 13.2839 10.5246C11.5127 10.5246 10.0668 12.02 10.0668 13.8751C10.0668 15.7301 11.5127 17.2444 13.2839 17.2444ZM21.8144 24.1915C23.5857 24.1915 25.0135 22.6771 25.0135 20.822C25.0135 18.967 23.5857 17.4716 21.8144 17.4716C20.0433 17.4716 18.5974 18.967 18.5974 20.822C18.5974 22.6771 20.0433 24.1915 21.8144 24.1915ZM35.4418 15.5787C37.2129 15.5787 38.6588 14.0644 38.6588 12.2093C38.6588 10.3542 37.2129 8.83991 35.4418 8.83991C33.6705 8.83991 32.2246 10.3542 32.2246 12.2093C32.2246 14.0644 33.6705 15.5787 35.4418 15.5787Z" fill="#252525" fill-opacity="0.75"/>
</svg>
