<svg width="21" height="12" viewBox="0 0 21 12" fill="none" xmlns="http://www.w3.org/2000/svg">
<path d="M10.1836 11.461C10.4766 11.461 10.7695 11.3438 10.9688 11.1211L20.0391 1.82813C20.2383 1.62891 20.3555 1.37109 20.3555 1.07813C20.3555 0.46875 19.8984 0 19.2891 0C18.9961 0 18.7266 0.11719 18.5273 0.30469L9.55078 9.48047H10.8047L1.82812 0.30469C1.64062 0.11719 1.37109 0 1.06641 0C0.457031 0 0 0.46875 0 1.07813C0 1.37109 0.117188 1.62891 0.316406 1.83985L9.38672 11.1211C9.60938 11.3438 9.87891 11.461 10.1836 11.461Z" fill="#252525"/>
</svg>
