<svg width="46" height="46" viewBox="0 0 46 46" fill="none" xmlns="http://www.w3.org/2000/svg">
<path d="M22.537 8.18827V19.608M22.537 19.608L26.8195 15.3256M22.537 19.608L18.2546 15.3256" stroke="#00AE11" stroke-width="2" stroke-linecap="round" stroke-linejoin="round"/>
<path d="M8.26236 23.8904H12.7732C14.065 23.8904 14.7117 23.8904 15.2798 24.1517C15.8479 24.4129 16.2676 24.9039 17.1084 25.8846L17.9734 26.8924C18.8142 27.8731 19.2339 28.3641 19.802 28.6253C20.3702 28.8866 21.0154 28.8866 22.3087 28.8866H22.7654C24.0573 28.8866 24.7039 28.8866 25.2721 28.6253C25.8402 28.3641 26.2599 27.8731 27.1007 26.8924L27.9657 25.8846C28.8065 24.9039 29.2262 24.4129 29.7943 24.1517C30.3624 23.8904 31.0077 23.8904 32.3009 23.8904H36.8117" stroke="#00AE11" stroke-width="2" stroke-linecap="round"/>
<path d="M36.8117 22.463C36.8117 29.1921 36.8117 32.5566 34.7205 34.6478C32.6321 36.7377 29.2661 36.7377 22.537 36.7377C15.808 36.7377 12.4434 36.7377 10.3522 34.6478C8.26236 32.5552 8.26236 29.1921 8.26236 22.463C8.26236 15.7339 8.26236 12.3708 10.3522 10.2795C11.5184 9.11328 13.0786 8.59796 15.3997 8.36956M29.6744 8.36956C31.994 8.59796 33.5571 9.11328 34.7205 10.2795C36.1109 11.6684 36.5762 13.6227 36.7332 16.7531" stroke="#00AE11" stroke-width="2" stroke-linecap="round"/>
</svg>
