<svg width="35" height="35" viewBox="0 0 35 35" fill="none" xmlns="http://www.w3.org/2000/svg">
<path d="M17.4919 25.7376C21.9903 25.7376 25.7281 22.0102 25.7281 17.508C25.7281 12.9898 21.9903 9.26232 17.4919 9.26232C12.9935 9.26232 9.25564 12.9898 9.25564 17.508C9.25564 22.0102 12.9935 25.7376 17.4919 25.7376ZM17.4919 23.2687C14.3365 23.2687 11.7152 20.6547 11.7152 17.508C11.7152 14.3453 14.3365 11.7312 17.4919 11.7312C20.6472 11.7312 23.2686 14.3453 23.2686 17.508C23.2686 20.6547 20.6472 23.2687 17.4919 23.2687ZM17.5081 6.27707C18.2686 6.27707 18.8996 5.64775 18.8996 4.8732V1.40387C18.8996 0.629321 18.2686 0 17.5081 0C16.7314 0 16.1004 0.629321 16.1004 1.40387V4.8732C16.1004 5.64775 16.7314 6.27707 17.5081 6.27707ZM25.4369 9.58505C25.987 10.1176 26.8769 10.1337 27.4272 9.58505L29.9028 7.11618C30.4369 6.58367 30.4369 5.68003 29.9028 5.13139C29.3688 4.59888 28.4789 4.59888 27.9288 5.13139L25.4369 7.6164C24.9029 8.16505 24.9029 9.05255 25.4369 9.58505ZM28.7217 17.508C28.7217 18.2664 29.3688 18.8958 30.1294 18.8958H33.6083C34.3688 18.8958 35 18.2664 35 17.508C35 16.7497 34.3688 16.1042 33.6083 16.1042H30.1294C29.3688 16.1042 28.7217 16.7497 28.7217 17.508ZM25.4369 25.4311C24.9029 25.9797 24.9029 26.8672 25.4369 27.3996L27.9288 29.9008C28.4789 30.4171 29.3688 30.401 29.9028 29.8847C30.4369 29.3361 30.4369 28.4486 29.9028 27.916L27.411 25.4311C26.8769 24.9147 25.987 24.9147 25.4369 25.4311ZM17.5081 28.739C16.7314 28.739 16.1004 29.3683 16.1004 30.1267V33.6123C16.1004 34.3706 16.7314 35 17.5081 35C18.2686 35 18.8996 34.3706 18.8996 33.6123V30.1267C18.8996 29.3683 18.2686 28.739 17.5081 28.739ZM9.56309 25.4311C9.01292 24.9147 8.10678 24.9147 7.57281 25.4311L5.09708 27.8999C4.5631 28.4324 4.5631 29.32 5.0809 29.8686C5.61488 30.3849 6.52103 30.401 7.07118 29.8847L9.54691 27.3996C10.0809 26.8672 10.0809 25.9797 9.56309 25.4311ZM6.27831 17.508C6.27831 16.7497 5.63105 16.1042 4.87054 16.1042H1.39158C0.631067 16.1042 0 16.7497 0 17.508C0 18.2664 0.631067 18.8958 1.39158 18.8958H4.87054C5.63105 18.8958 6.27831 18.2664 6.27831 17.508ZM9.54691 9.58505C10.0809 9.06869 10.0809 8.14891 9.56309 7.6164L7.08736 5.13139C6.55338 4.61502 5.64723 4.59888 5.11325 5.13139C4.57929 5.68003 4.57929 6.58367 5.09708 7.10004L7.57281 9.58505C8.10678 10.1176 8.99674 10.1176 9.54691 9.58505Z" fill="#252525"/>
</svg>
