<svg width="32" height="35" viewBox="0 0 32 35" fill="none" xmlns="http://www.w3.org/2000/svg">
<path d="M0 26.742C0 27.9698 0.938167 28.7771 2.5297 28.7771H9.59945C9.73348 32.0231 12.2632 34.8655 15.7981 34.8655C19.3498 34.8655 21.8794 32.0231 22.0134 28.7771H29.0832C30.6579 28.7771 31.6129 27.9698 31.6129 26.742C31.6129 25.06 29.9041 23.5463 28.4634 22.0495C27.3576 20.889 27.0561 18.5007 26.922 16.5666C26.9053 15.4565 26.8215 14.4306 26.721 13.4383C25.9336 13.6905 24.895 13.8419 24.074 13.8083C24.1746 14.6997 24.2415 15.6584 24.2584 16.7852C24.4091 20.0649 24.9788 22.2345 26.1682 23.58C27.0561 24.5556 28.0445 25.5479 28.346 26.0355V26.2373H3.25008V26.0355C3.55164 25.5479 4.55681 24.5556 5.42797 23.58C6.63417 22.2345 7.20378 20.0649 7.35456 16.7852C7.48858 9.43538 9.66647 7.09755 12.5312 6.30707C12.95 6.20616 13.1846 6.00432 13.2014 5.56704C13.2516 3.81788 14.2568 2.59011 15.7981 2.59011C16.0996 2.59011 16.3844 2.62373 16.619 2.72466C16.9373 1.95099 17.3561 1.22778 17.8921 0.588659C17.2723 0.285921 16.5686 0.117732 15.7981 0.117732C13.3354 0.117732 11.526 1.85007 10.9732 4.05334C6.5169 5.66795 4.8081 9.93994 4.69083 16.5666C4.55681 18.5007 4.25525 20.889 3.14955 22.0495C1.69205 23.5463 0 25.06 0 26.742ZM12.2129 28.7771H19.3999C19.266 31.0644 17.8252 32.494 15.7981 32.494C13.7877 32.494 12.3302 31.0644 12.2129 28.7771ZM24.0572 11.6555C27.2236 11.6555 29.8705 9.03172 29.8705 5.83615C29.8705 2.62373 27.2236 0 24.0572 0C20.8574 0 18.244 2.62373 18.244 5.83615C18.244 9.03172 20.8574 11.6555 24.0572 11.6555Z" fill="#252525"/>
</svg>
