<svg width="31" height="31" viewBox="0 0 31 31" fill="none" xmlns="http://www.w3.org/2000/svg">
<path d="M15.5369 12.6822V1.26244M15.5369 1.26244L19.8193 5.54484M15.5369 1.26244L11.2545 5.54484" stroke="#FFC107" stroke-width="2" stroke-linecap="round" stroke-linejoin="round"/>
<path d="M1.26215 16.9646H5.77295C7.06481 16.9646 7.71145 16.9646 8.27958 17.2258C8.84772 17.4871 9.26739 17.9781 10.1082 18.9588L10.9732 19.9666C11.814 20.9472 12.2337 21.4383 12.8018 21.6995C13.3699 21.9607 14.0152 21.9607 15.3084 21.9607H15.7652C17.0571 21.9607 17.7037 21.9607 18.2719 21.6995C18.84 21.4383 19.2597 20.9472 20.1005 19.9666L20.9655 18.9588C21.8063 17.9781 22.226 17.4871 22.7941 17.2258C23.3622 16.9646 24.0074 16.9646 25.3007 16.9646H29.8115" stroke="#FFC107" stroke-width="2" stroke-linecap="round"/>
<path d="M29.8115 15.5371C29.8115 22.2662 29.8115 25.6308 27.7203 27.722C25.6319 29.8118 22.2659 29.8118 15.5368 29.8118C8.80775 29.8118 5.4432 29.8118 3.35196 27.722C1.26215 25.6293 1.26215 22.2662 1.26215 15.5371C1.26215 8.80804 1.26215 5.44492 3.35196 3.35368C4.5182 2.18744 6.07843 1.67212 8.39949 1.44373M22.6742 1.44373C24.9938 1.67212 26.5569 2.18744 27.7203 3.35368C29.1106 4.74261 29.576 6.69681 29.733 9.82725" stroke="#FFC107" stroke-width="2" stroke-linecap="round"/>
</svg>
