<svg width="33" height="28" viewBox="0 0 33 28" fill="none" xmlns="http://www.w3.org/2000/svg">
<path d="M11.5757 21.0802H28.1917C28.7471 21.0802 29.2311 20.6246 29.2311 20.0123C29.2311 19.4001 28.7471 18.9445 28.1917 18.9445H11.8177C11.0062 18.9445 10.5078 18.3749 10.3797 17.5064L8.04461 1.65921C7.90224 0.562871 7.50356 0.00756836 6.05126 0.00756836H1.05363C0.484101 0.00756836 0 0.505912 0 1.07544C0 1.65921 0.484101 2.15756 1.05363 2.15756H5.86616L8.14428 17.7912C8.44329 19.813 9.51115 21.0802 11.5757 21.0802ZM8.95586 16.0114H28.2203C30.299 16.0114 31.3669 14.7299 31.6659 12.6939L32.8049 5.16182C32.8334 4.97673 32.8619 4.74892 32.8619 4.62077C32.8619 3.93733 32.3493 3.46747 31.5663 3.46747H7.71713L7.73137 5.61744H30.4414L29.4305 12.4376C29.3166 13.3204 28.8467 13.8756 28.0067 13.8756H8.92739L8.95586 16.0114ZM12.7005 28C13.982 28 15.0072 26.9891 15.0072 25.6934C15.0072 24.412 13.982 23.3868 12.7005 23.3868C11.4048 23.3868 10.3797 24.412 10.3797 25.6934C10.3797 26.9891 11.4048 28 12.7005 28ZM26.0133 28C27.309 28 28.3341 26.9891 28.3341 25.6934C28.3341 24.412 27.309 23.3868 26.0133 23.3868C24.7319 23.3868 23.6925 24.412 23.6925 25.6934C23.6925 26.9891 24.7319 28 26.0133 28Z" fill="#00AE11"/>
</svg>
