<svg width="28" height="24" viewBox="0 0 28 24" fill="none" xmlns="http://www.w3.org/2000/svg">
<path d="M9.52734 17.3438H23.2031C23.6602 17.3438 24.0586 16.9688 24.0586 16.4649C24.0586 15.961 23.6602 15.586 23.2031 15.586H9.72656C9.05859 15.586 8.64844 15.1172 8.54297 14.4024L6.62109 1.35938C6.50391 0.45704 6.17578 0 4.98047 0H0.867188C0.398438 0 0 0.41016 0 0.87891C0 1.35938 0.398438 1.76954 0.867188 1.76954H4.82812L6.70312 14.6368C6.94922 16.3008 7.82812 17.3438 9.52734 17.3438ZM7.37109 13.1719H23.2266C24.9375 13.1719 25.8164 12.1172 26.0625 10.4415L27 4.24219C27.0234 4.08985 27.0469 3.90235 27.0469 3.79688C27.0469 3.23438 26.625 2.84766 25.9805 2.84766H6.35156L6.36328 4.61719H25.0547L24.2227 10.2305C24.1289 10.9571 23.7422 11.4141 23.0508 11.4141H7.34766L7.37109 13.1719ZM10.4531 23.0391C11.5078 23.0391 12.3516 22.2071 12.3516 21.1407C12.3516 20.086 11.5078 19.2422 10.4531 19.2422C9.38672 19.2422 8.54297 20.086 8.54297 21.1407C8.54297 22.2071 9.38672 23.0391 10.4531 23.0391ZM21.4102 23.0391C22.4766 23.0391 23.3203 22.2071 23.3203 21.1407C23.3203 20.086 22.4766 19.2422 21.4102 19.2422C20.3555 19.2422 19.5 20.086 19.5 21.1407C19.5 22.2071 20.3555 23.0391 21.4102 23.0391Z" fill="#252525"/>
</svg>
