<svg width="32" height="35" viewBox="0 0 32 35" fill="none" xmlns="http://www.w3.org/2000/svg">
<path d="M4.96537 34.9999H27.2968C30.2459 34.9999 31.6494 34.0715 31.6494 32.029C31.6494 27.1643 25.769 20.1272 16.14 20.1272C6.49322 20.1272 0.612793 27.1643 0.612793 32.029C0.612793 34.0715 2.01628 34.9999 4.96537 34.9999ZM4.13038 32.1962C3.66847 32.1962 3.47306 32.0663 3.47306 31.6763C3.47306 28.6312 7.98553 22.931 16.14 22.931C24.2767 22.931 28.789 28.6312 28.789 31.6763C28.789 32.0663 28.6115 32.1962 28.1496 32.1962H4.13038ZM16.14 17.8248C20.3681 17.8248 23.8147 13.8885 23.8147 9.09804C23.8147 4.34472 20.386 0.61261 16.14 0.61261C11.9295 0.61261 8.46521 4.41898 8.46521 9.13516C8.48297 13.9071 11.9117 17.8248 16.14 17.8248ZM16.14 15.0211C13.5462 15.0211 11.3255 12.4216 11.3255 9.13516C11.3255 5.90439 13.5106 3.41633 16.14 3.41633C18.7871 3.41633 20.9545 5.86725 20.9545 9.09804C20.9545 12.3845 18.7514 15.0211 16.14 15.0211Z" fill="#252525"/>
</svg>
