<svg width="29" height="28" viewBox="0 0 29 28" fill="none" xmlns="http://www.w3.org/2000/svg">
<path d="M20.6138 7.35015C22.6045 6.11819 24.6458 0.568253 22.4029 0.0315559C20.0972 -0.480746 19.379 5.38633 20.6138 7.35015ZM20.9161 7.82586C23.8394 7.83805 29.8117 3.21515 27.7453 1.20253C25.6789 -0.797885 20.9036 4.98381 20.9161 7.82586ZM21.4075 8.10641C23.4235 9.32617 29.4967 8.60651 28.9675 6.41093C28.4257 4.20316 22.6801 6.19137 21.4075 8.10641ZM21.1052 6.50851C17.8922 3.34931 13.6461 4.14216 10.9244 8.32596L0.403614 24.5122C-0.301977 25.61 -0.0121813 26.5858 0.731209 27.3055C1.3738 27.9398 2.35659 28.3423 3.57877 27.5983L20.3366 17.4132C24.6331 14.8029 25.4017 10.7289 22.1887 7.56971L21.1052 6.50851ZM19.7696 7.81366L20.8406 8.87486C23.2219 11.2168 22.7935 13.7296 19.3538 15.8275L2.62119 26.0003C2.20539 26.2565 1.77699 25.854 2.0416 25.4637L12.5625 9.26518C14.7422 5.92302 17.3756 5.48391 19.7696 7.81366ZM15.8258 11.6193C16.1408 11.3022 16.1408 10.8265 15.8006 10.4972L12.8648 7.69169L11.7182 8.85046L14.654 11.6315C14.9942 11.9608 15.4983 11.9486 15.8258 11.6193ZM12.9657 13.3392C13.2933 13.0221 13.2933 12.5341 12.9531 12.2048L10.6221 9.99702L9.4755 11.1436L11.7938 13.3392C12.134 13.6686 12.6255 13.6563 12.9657 13.3392ZM10.1433 18.45C9.82829 18.7672 9.8157 19.2551 10.1559 19.5844L12.2097 21.5116L13.6461 20.6456L11.315 18.4378C10.9874 18.1207 10.4835 18.1328 10.1433 18.45ZM7.90053 20.7188C7.57293 21.0359 7.57293 21.5361 7.91312 21.8531L9.3369 23.2315L10.7985 22.3654L9.07231 20.7188C8.73211 20.3894 8.22811 20.4016 7.90053 20.7188Z" fill="#FF5F5F"/>
</svg>
